<svg width="140" height="140" viewBox="0 0 140 140" fill="none" xmlns="http://www.w3.org/2000/svg">
<rect width="140" height="140" rx="40" fill="#2B2B2B" fill-opacity="0.24"/>
<path d="M58.6404 23.3825L102.456 45.3397L109.103 41.2841L66.6089 20L58.6404 23.3825Z" fill="#0E4BE4"/>
<path d="M58.6404 23.393V35.2118V49.6131V66.0003V77.651L102.021 98.6591V87.5543L68.3795 70.8972V37.583L102.456 54.2401V44.9862L58.6404 23.393Z" fill="#1C1C1C"/>
<path fill-rule="evenodd" clip-rule="evenodd" d="M124.935 39.9383C120.107 37.0075 115.309 34.0153 110.472 31.1049C109.976 31.3551 109.528 31.6933 109.05 31.9765C111.003 33.2649 113.033 34.4227 115.013 35.6655C115.7 36.0683 116.359 36.5261 117.062 36.8958C117.172 36.729 117.282 36.5607 117.39 36.3939C118.789 37.2765 118.992 37.5471 120.382 38.4469C120.486 38.2613 121.818 38.631 121.922 38.4469C123.177 39.2178 123.07 39.1721 124.328 39.9383C124.344 39.4585 125.245 40.1428 124.935 39.9383Z" fill="white"/>
<path fill-rule="evenodd" clip-rule="evenodd" d="M123.126 41.3001C118.298 38.3693 113.5 35.3771 108.663 32.4667C108.167 32.7169 107.719 33.0551 107.242 33.3383C109.194 34.6267 111.224 35.7846 113.205 37.0274C113.892 37.4301 114.55 37.8879 115.254 38.2576C115.363 38.0908 115.473 37.9225 115.582 37.7557C116.981 38.6383 118.413 39.4642 119.803 40.3641C119.907 40.1784 120.009 39.9928 120.113 39.8087C121.368 40.5796 122.626 41.3473 123.885 42.1134C123.901 41.6336 123.437 41.5046 123.126 41.3001Z" fill="white"/>
<path d="M25 36.338L68.8155 58.2952L75.4627 54.2396L32.9685 32.9555L25 36.338Z" fill="#0E4BE4"/>
<path fill-rule="evenodd" clip-rule="evenodd" d="M111.814 36.909C110.064 35.8629 108.351 34.7396 106.577 33.7422C106.151 34.0679 105.516 34.2 105.241 34.6846C107.893 36.2955 110.527 37.9379 113.184 39.5362C113.292 39.36 113.401 39.1854 113.51 39.0108C115.592 40.3323 117.727 41.5578 119.794 42.9028C119.908 42.7156 120.022 42.53 120.137 42.3443C121.373 43.1309 122.628 43.8813 123.876 44.6443C123.882 44.3942 123.779 44.218 123.57 44.1142C119.657 41.7025 115.729 39.3191 111.814 36.909Z" fill="white"/>
<path fill-rule="evenodd" clip-rule="evenodd" d="M104.55 34.9741C104.061 35.2761 103.568 35.5687 103.083 35.8786C105.754 37.532 108.421 39.1965 111.126 40.7869C111.233 40.6217 111.341 40.4581 111.448 40.2945C114.227 41.9998 117.018 43.6863 119.781 45.4183C119.907 45.2437 120.032 45.0691 120.158 44.8961C121.397 45.6543 122.624 46.433 123.876 47.1646C123.946 46.8515 123.671 46.7288 123.486 46.5919C117.177 42.7125 110.843 38.8802 104.55 34.9741Z" fill="white"/>
<path fill-rule="evenodd" clip-rule="evenodd" d="M103.897 37.1322C103.413 36.8349 102.945 36.5093 102.436 36.2623C102.007 36.5958 101.412 36.7515 101.087 37.1952C103.724 38.825 106.359 40.4611 109.023 42.0374C109.108 41.8596 109.193 41.6834 109.279 41.5072C112.78 43.6404 116.279 45.78 119.77 47.9321C119.932 47.7858 120.057 47.3311 120.328 47.5482C121.527 48.2435 122.68 49.027 123.892 49.694C123.932 49.3306 123.595 49.211 123.374 49.0522C116.878 45.0862 110.391 41.1013 103.897 37.1322Z" fill="white"/>
<path d="M25 36.3485V48.1673V62.5686V78.9558V90.6065L68.3804 111.615V100.51L34.7391 83.8527V50.5385L68.8155 67.1956V57.9417L25 36.3485Z" fill="#1C1C1C"/>
<path fill-rule="evenodd" clip-rule="evenodd" d="M123.376 51.5868C115.705 46.9051 108.05 42.1934 100.376 37.5148C99.9505 37.8751 99.3481 38.0151 99.0024 38.4666C101.654 40.0712 104.28 41.7294 106.946 43.3072C107.035 43.1373 107.124 42.9674 107.213 42.7991C111.435 45.3099 115.598 47.9308 119.803 50.473C119.899 50.3047 119.996 50.138 120.092 49.9696C121.408 50.6445 122.601 51.5648 123.923 52.2303C123.899 51.8905 123.61 51.7379 123.376 51.5868Z" fill="white"/>
<path d="M68.3795 70.8967L102.02 87.554L109.988 83.8522L76.3471 68.1207L68.3795 70.8967Z" fill="#0E4BE4"/>
<path d="M68.3799 37.5826L68.3795 70.8967L76.3471 68.1207V41.2842L68.3799 37.5826Z" fill="#0E4BE4"/>
<path fill-rule="evenodd" clip-rule="evenodd" d="M108.978 45.308C105.408 43.1465 101.875 40.9188 98.2872 38.7903C98.0647 38.9319 97.8406 39.0735 97.6151 39.212C97.6077 39.5203 97.6003 39.8286 97.5958 40.137C100.694 42.0358 103.798 43.9268 106.888 45.8382C107.016 45.6683 107.144 45.4968 107.273 45.3284C111.441 47.9022 115.622 50.4523 119.801 53.004C119.905 52.834 120.009 52.6641 120.113 52.4958C121.402 53.2148 122.616 54.08 123.923 54.7612C123.879 54.5142 123.753 54.3364 123.548 54.2279C118.687 51.2625 113.835 48.2797 108.978 45.308Z" fill="white"/>
<path fill-rule="evenodd" clip-rule="evenodd" d="M121.753 55.6597C113.694 50.7545 105.672 45.7833 97.6033 40.8986C97.5973 41.4949 97.6003 42.0927 97.6033 42.6889C100.744 44.583 103.865 46.5148 106.995 48.431C107.093 48.2438 107.19 48.055 107.288 47.8693C111.461 50.4462 115.643 53.0105 119.837 55.5496C119.965 55.397 120.033 55.1657 120.215 55.076C120.963 55.4379 121.594 56.075 122.394 56.3015L122.481 56.1552C122.259 55.9586 122.005 55.8076 121.753 55.6597Z" fill="white"/>
<path d="M102.456 44.9855L109.103 41.2839V49.6125L102.456 54.2395V44.9855Z" fill="#CCCCCC"/>
<path fill-rule="evenodd" clip-rule="evenodd" d="M119.668 56.9229C112.313 52.422 104.961 47.9165 97.6077 43.4141C97.5988 44.0087 97.6003 44.605 97.5988 45.1996C100.71 47.1362 103.86 49.0035 106.958 50.9621C107.074 50.7812 107.188 50.6003 107.301 50.4194C110.752 52.5652 114.243 54.6371 117.681 56.8049C117.816 56.646 117.948 56.4855 118.082 56.3267C118.882 56.7168 119.571 57.3429 120.42 57.6135C120.327 57.2344 119.944 57.1148 119.668 56.9229Z" fill="white"/>
<path fill-rule="evenodd" clip-rule="evenodd" d="M89.5232 54.7444C84.6952 51.8136 79.8968 48.8214 75.0598 45.9111C74.5642 46.1612 74.1161 46.4994 73.6384 46.7826C75.5909 48.071 77.6207 49.2289 79.6015 50.4717C80.2885 50.8744 80.9472 51.3322 81.6505 51.7019C81.7603 51.5352 81.8701 51.3668 81.9784 51.2001C83.3776 52.0826 83.5798 52.3532 84.9701 53.2531C85.0739 53.0674 86.4059 53.4371 86.5098 53.2531C87.765 54.0239 87.6579 53.9783 88.9161 54.7444C88.9324 54.2646 89.8333 54.9489 89.5232 54.7444Z" fill="white"/>
<path fill-rule="evenodd" clip-rule="evenodd" d="M117.316 58.0156C110.748 53.9852 104.166 49.9783 97.6046 45.9352C97.5987 46.533 97.6017 47.1309 97.5942 47.7287C100.704 49.6605 103.842 51.542 106.949 53.4817C107.068 53.3118 107.187 53.1419 107.305 52.9736C110.107 54.6538 112.88 56.389 115.674 58.0848C115.774 57.9102 115.874 57.734 115.975 57.5594C116.777 57.9716 117.482 58.6024 118.349 58.8667C118.183 58.3932 117.678 58.2673 117.316 58.0156Z" fill="white"/>
<path fill-rule="evenodd" clip-rule="evenodd" d="M87.7147 56.1062C82.8866 53.1754 78.0882 50.1833 73.2512 47.2729C72.7556 47.523 72.3075 47.8613 71.8298 48.1444C73.7824 49.4329 75.8121 50.5907 77.7929 51.8335C78.4799 52.2362 79.1387 52.694 79.842 53.0637C79.9517 52.897 80.0615 52.7286 80.1699 52.5619C81.569 53.4444 83.0008 54.2704 84.3911 55.1702C84.4949 54.9846 84.5973 54.7989 84.7012 54.6149C85.9564 55.3857 87.2146 56.1534 88.4728 56.9196C88.4892 56.4398 88.0248 56.3108 87.7147 56.1062Z" fill="white"/>
<path fill-rule="evenodd" clip-rule="evenodd" d="M116.183 59.8626C109.995 56.0556 103.79 52.2784 97.6003 48.4713C97.6003 49.0675 97.6017 49.6638 97.5943 50.26C100.706 52.1934 103.838 54.0891 106.961 56.0021C107.072 55.8385 107.184 55.6749 107.295 55.5113C109.427 56.743 111.488 58.1117 113.625 59.3341C113.726 59.1642 113.828 58.9927 113.929 58.8244C114.582 59.2035 115.206 59.6314 115.865 59.9979C116.002 60.1584 116.459 60.0955 116.183 59.8626Z" fill="white"/>
<path fill-rule="evenodd" clip-rule="evenodd" d="M76.4026 51.7152C74.6518 50.669 72.9395 49.5458 71.165 48.5484C70.7392 48.874 70.1041 49.0062 69.8296 49.4907C72.4811 51.1017 75.1147 52.744 77.7721 54.3424C77.8804 54.1662 77.9887 53.9916 78.0985 53.817C80.1802 55.1384 82.3153 56.3639 84.3821 57.709C84.4964 57.5218 84.6106 57.3361 84.7249 57.1505C85.9608 57.9371 87.216 58.6875 88.4639 59.4505C88.4698 59.2003 88.3674 59.0241 88.1582 58.9203C84.2456 56.5086 80.3167 54.1253 76.4026 51.7152Z" fill="white"/>
<path fill-rule="evenodd" clip-rule="evenodd" d="M69.1383 49.7802C68.6487 50.0823 68.1561 50.3749 67.6709 50.6848C70.3417 52.3382 73.0094 54.0026 75.7143 55.5931C75.8211 55.4279 75.9294 55.2643 76.0362 55.1007C78.8153 56.806 81.6062 58.4924 84.3689 60.2245C84.495 60.0499 84.6196 59.8753 84.7458 59.7022C85.9847 60.4605 87.2117 61.2392 88.464 61.9707C88.5337 61.6577 88.2592 61.5349 88.0738 61.3981C81.7649 57.5186 75.4309 53.6864 69.1383 49.7802Z" fill="white"/>
<path d="M34.7391 83.8523L68.3799 100.51L76.348 96.8078L42.7067 81.0762L34.7391 83.8523Z" fill="#0E4BE4"/>
<path d="M34.7396 50.5382L34.7391 83.8523L42.7067 81.0762V54.2398L34.7396 50.5382Z" fill="#0E4BE4"/>
<path fill-rule="evenodd" clip-rule="evenodd" d="M112.964 60.4199C107.841 57.2877 102.725 54.1414 97.5957 51.0155C97.5987 51.618 97.6002 52.2206 97.6046 52.8247C100.74 54.703 103.832 56.66 106.973 58.5274C107.084 58.3606 107.194 58.1955 107.305 58.0287C108.725 58.8814 110.123 59.7749 111.552 60.6103C111.644 60.4341 111.737 60.2563 111.831 60.0801C112.663 60.4781 113.359 61.2222 114.276 61.3874C113.949 60.9218 113.42 60.7094 112.964 60.4199Z" fill="white"/>
<path fill-rule="evenodd" clip-rule="evenodd" d="M68.4854 51.9384C68.0017 51.6411 67.5329 51.3154 67.0239 51.0684C66.5951 51.4019 66.0002 51.5577 65.6752 52.0013C68.3118 53.6311 70.9469 55.2672 73.6117 56.8435C73.6963 56.6658 73.7809 56.4896 73.8669 56.3134C77.3685 58.4466 80.8672 60.5861 84.3584 62.7382C84.5202 62.5919 84.6448 62.1373 84.9163 62.3544C86.1152 63.0497 87.268 63.8331 88.4802 64.5002C88.5203 64.1368 88.1835 64.0172 87.9624 63.8583C81.4666 59.8923 74.9797 55.9075 68.4854 51.9384Z" fill="white"/>
<path fill-rule="evenodd" clip-rule="evenodd" d="M87.9639 66.393C80.2929 61.7112 72.6383 56.9996 64.9645 52.321C64.5386 52.6812 63.9362 52.8213 63.5905 53.2728C66.2419 54.8774 68.8682 56.5355 71.5344 58.1134C71.6235 57.9435 71.7125 57.7736 71.8015 57.6053C76.0227 60.116 80.1861 62.7369 84.391 65.2792C84.4875 65.1109 84.5839 64.9441 84.6803 64.7758C85.9964 65.4507 87.1893 66.371 88.5114 67.0364C88.4876 66.6966 88.1983 66.544 87.9639 66.393Z" fill="white"/>
<path fill-rule="evenodd" clip-rule="evenodd" d="M110.599 61.5075C106.27 58.852 101.94 56.1965 97.6018 53.5551C97.5989 54.1592 97.5989 54.7617 97.6063 55.3643C100.744 57.2458 103.848 59.1902 106.983 61.0764C107.087 60.9002 107.191 60.7256 107.294 60.551C107.997 60.9978 108.718 61.4147 109.421 61.863C109.549 61.6947 109.676 61.5248 109.804 61.358C110.488 61.7922 111.177 62.2186 111.874 62.626H112.249C111.743 62.1824 111.169 61.8442 110.599 61.5075Z" fill="white"/>
<path fill-rule="evenodd" clip-rule="evenodd" d="M73.5657 60.1141C69.9958 57.9526 66.463 55.725 62.8754 53.5965C62.6528 53.7381 62.4287 53.8797 62.2032 54.0181C62.1958 54.3264 62.1884 54.6348 62.1839 54.9431C65.282 56.8419 68.3859 58.7329 71.4766 60.6443C71.6042 60.4744 71.7318 60.3029 71.8609 60.1346C76.0287 62.7083 80.2098 65.2584 84.3895 67.8101C84.4934 67.6402 84.5973 67.4703 84.7011 67.302C85.9905 68.0209 87.2042 68.8861 88.5114 69.5673C88.4668 69.3203 88.3407 69.1426 88.136 69.034C83.2752 66.0686 78.4234 63.0859 73.5657 60.1141Z" fill="white"/>
<path d="M68.8152 57.941L75.4627 54.2394L75.4618 63.4934L68.8152 67.195V57.941Z" fill="#CCCCCC"/>
<path fill-rule="evenodd" clip-rule="evenodd" d="M86.3407 70.4658C78.2825 65.5607 70.26 60.5895 62.1914 55.7048C62.1855 56.301 62.1884 56.8988 62.1914 57.495C65.3325 59.3891 68.4528 61.321 71.5835 63.2371C71.6814 63.0499 71.7778 62.8611 71.8758 62.6755C76.0495 65.2523 80.2307 67.8166 84.4252 70.3557C84.5528 70.2031 84.621 69.9719 84.8035 69.8822C85.5514 70.244 86.1819 70.8812 86.9817 71.1077L87.0692 70.9614C86.8467 70.7647 86.5929 70.6137 86.3407 70.4658Z" fill="white"/>
<path fill-rule="evenodd" clip-rule="evenodd" d="M84.256 71.729C76.9012 67.2282 69.5493 62.7226 62.1959 58.2202C62.187 58.8149 62.1884 59.4111 62.187 60.0058C65.2983 61.9423 68.4483 63.8097 71.5464 65.7683C71.6621 65.5874 71.7763 65.4065 71.8891 65.2255C75.3403 67.3714 78.8315 69.4432 82.2693 71.6111C82.4043 71.4522 82.5364 71.2917 82.6699 71.1328C83.4697 71.523 84.1596 72.1491 85.0083 72.4197C84.9148 72.0405 84.532 71.921 84.256 71.729Z" fill="white"/>
<path fill-rule="evenodd" clip-rule="evenodd" d="M81.9043 72.8229C75.3358 68.7924 68.754 64.7855 62.1929 60.7425C62.187 61.3403 62.1899 61.9381 62.1825 62.5359C65.2924 64.4678 68.4305 66.3493 71.5375 68.289C71.6562 68.1191 71.7749 67.9492 71.8936 67.7809C74.6949 69.461 77.468 71.1962 80.2618 72.8921C80.3627 72.7175 80.4621 72.5413 80.563 72.3667C81.3657 72.7788 82.0705 73.4097 82.937 73.674C82.7708 73.2004 82.2664 73.0746 81.9043 72.8229Z" fill="white"/>
<path fill-rule="evenodd" clip-rule="evenodd" d="M80.7707 74.6688C74.5835 70.8617 68.3785 67.0845 62.1884 63.2775C62.1884 63.8737 62.1899 64.4699 62.1825 65.0662C65.2938 66.9996 68.426 68.8953 71.5493 70.8082C71.6606 70.6446 71.7718 70.481 71.8831 70.3174C74.0153 71.5492 76.0762 72.9179 78.2127 74.1402C78.3136 73.9703 78.416 73.7988 78.5169 73.6305C79.1698 74.0096 79.7944 74.4375 80.4532 74.8041C80.5897 74.9646 81.0467 74.9016 80.7707 74.6688Z" fill="white"/>
<path fill-rule="evenodd" clip-rule="evenodd" d="M77.5525 75.2261C72.4292 72.0939 67.3132 68.9475 62.184 65.8217C62.1869 66.4242 62.1884 67.0267 62.1929 67.6308C65.328 69.5092 68.4201 71.4662 71.5612 73.3335C71.6725 73.1668 71.7823 73.0016 71.8935 72.8349C73.3135 73.6875 74.7112 74.5811 76.14 75.4164C76.232 75.2402 76.3255 75.0625 76.4189 74.8863C77.2513 75.2843 77.9472 76.0284 78.8641 76.1936C78.5377 75.7279 78.008 75.5155 77.5525 75.2261Z" fill="white"/>
<path fill-rule="evenodd" clip-rule="evenodd" d="M75.1875 76.3136C70.8579 73.6581 66.5284 71.0026 62.19 68.3613C62.187 68.9654 62.187 69.5679 62.1944 70.1704C65.3325 72.0519 68.4365 73.9964 71.5716 75.8826C71.6755 75.7064 71.7793 75.5318 71.8817 75.3572C72.585 75.8039 73.3061 76.2208 74.0094 76.6692C74.137 76.5009 74.2646 76.331 74.3922 76.1642C75.0762 76.5984 75.7647 77.0247 76.462 77.4322H76.8374C76.3314 76.9885 75.7572 76.6503 75.1875 76.3136Z" fill="white"/>
<path fill-rule="evenodd" clip-rule="evenodd" d="M123.164 84.3567C118.336 81.4259 113.538 78.4337 108.701 75.5234C108.205 75.7735 107.757 76.1117 107.28 76.3949C109.232 77.6833 111.262 78.8412 113.243 80.084C113.93 80.4867 114.588 80.9445 115.292 81.3142C115.402 81.1475 115.511 80.9791 115.62 80.8124C117.019 81.6949 117.221 81.9655 118.611 82.8654C118.715 82.6797 120.047 83.0494 120.151 82.8654C121.406 83.6362 121.299 83.5906 122.557 84.3567C122.574 83.8769 123.475 84.5612 123.164 84.3567Z" fill="white"/>
<path fill-rule="evenodd" clip-rule="evenodd" d="M121.356 85.7185C116.528 82.7877 111.729 79.7956 106.892 76.8852C106.397 77.1353 105.949 77.4736 105.471 77.7567C107.424 79.0452 109.453 80.203 111.434 81.4458C112.121 81.8485 112.78 82.3063 113.483 82.676C113.593 82.5093 113.703 82.341 113.811 82.1742C115.21 83.0567 116.642 83.8827 118.032 84.7825C118.136 84.5969 118.239 84.4112 118.342 84.2272C119.598 84.998 120.856 85.7657 122.114 86.5319C122.13 86.0521 121.666 85.9231 121.356 85.7185Z" fill="white"/>
<path fill-rule="evenodd" clip-rule="evenodd" d="M110.044 81.3275C108.293 80.2813 106.581 79.1581 104.806 78.1607C104.38 78.4864 103.745 78.6185 103.471 79.103C106.122 80.714 108.756 82.3564 111.413 83.9547C111.522 83.7785 111.63 83.6039 111.74 83.4293C113.821 84.7507 115.956 85.9762 118.023 87.3213C118.138 87.1341 118.252 86.9484 118.366 86.7628C119.602 87.5494 120.857 88.2998 122.105 89.0628C122.111 88.8126 122.009 88.6365 121.799 88.5326C117.887 86.121 113.958 83.7376 110.044 81.3275Z" fill="white"/>
<path fill-rule="evenodd" clip-rule="evenodd" d="M102.78 79.3926C102.29 79.6946 101.797 79.9872 101.312 80.2972C103.983 81.9506 106.651 83.615 109.355 85.2054C109.462 85.0403 109.571 84.8767 109.677 84.713C112.456 86.4184 115.247 88.1048 118.01 89.8369C118.136 89.6622 118.261 89.4876 118.387 89.3146C119.626 90.0728 120.853 90.8516 122.105 91.5831C122.175 91.27 121.9 91.1473 121.715 91.0104C115.406 87.131 109.072 83.2988 102.78 79.3926Z" fill="white"/>
<path fill-rule="evenodd" clip-rule="evenodd" d="M102.127 81.5518C101.643 81.2545 101.174 80.9289 100.665 80.6819C100.236 81.0154 99.6414 81.1711 99.3165 81.6148C101.953 83.2446 104.588 84.8807 107.253 86.457C107.338 86.2792 107.422 86.103 107.508 85.9268C111.01 88.0601 114.508 90.1996 118 92.3517C118.161 92.2054 118.286 91.7507 118.558 91.9678C119.756 92.6632 120.909 93.4466 122.121 94.1136C122.162 93.7502 121.825 93.6307 121.604 93.4718C115.108 89.5058 108.621 85.521 102.127 81.5518Z" fill="white"/>
<path fill-rule="evenodd" clip-rule="evenodd" d="M121.605 96.0053C113.934 91.3235 106.28 86.6119 98.6057 81.9333C98.1799 82.2935 97.5775 82.4336 97.2317 82.8851C99.8832 84.4897 102.509 86.1478 105.176 87.7257C105.265 87.5558 105.354 87.3859 105.443 87.2176C109.664 89.7284 113.827 92.3493 118.032 94.8915C118.129 94.7232 118.225 94.5564 118.322 94.3881C119.638 95.063 120.831 95.9833 122.153 96.6487C122.129 96.3089 121.84 96.1563 121.605 96.0053Z" fill="white"/>
<path fill-rule="evenodd" clip-rule="evenodd" d="M107.207 89.7265C103.637 87.5649 100.104 85.3373 96.5166 83.2088C96.294 83.3504 96.07 83.492 95.8445 83.6304C95.837 83.9388 95.8296 84.2471 95.8252 84.5554C98.9232 86.4543 102.027 88.3452 105.118 90.2566C105.245 90.0867 105.373 89.9152 105.502 89.7469C109.67 92.3206 113.851 94.8707 118.031 97.4224C118.135 97.2525 118.238 97.0826 118.342 96.9143C119.632 97.6332 120.845 98.4985 122.153 99.1796C122.108 98.9326 121.982 98.7549 121.777 98.6463C116.916 95.6809 112.065 92.6982 107.207 89.7265Z" fill="white"/>
<path d="M102.021 98.6592L109.988 94.9576V83.8529L102.021 87.5545V98.6592Z" fill="#CCCCCC"/>
<path fill-rule="evenodd" clip-rule="evenodd" d="M119.982 100.078C111.924 95.173 103.901 90.2018 95.8326 85.3171C95.8267 85.9133 95.8297 86.5111 95.8326 87.1073C98.9737 89.0014 102.094 90.9333 105.225 92.8494C105.323 92.6622 105.419 92.4734 105.517 92.2878C109.691 94.8647 113.872 97.4289 118.066 99.968C118.194 99.8154 118.262 99.5842 118.445 99.4945C119.193 99.8563 119.823 100.493 120.623 100.72L120.71 100.574C120.488 100.377 120.234 100.226 119.982 100.078Z" fill="white"/>
<path fill-rule="evenodd" clip-rule="evenodd" d="M117.897 101.341C110.542 96.8405 103.19 92.3349 95.8371 87.8325C95.8282 88.4272 95.8297 89.0234 95.8282 89.6181C98.9396 91.5546 102.09 93.422 105.188 95.3806C105.303 95.1997 105.418 95.0188 105.53 94.8379C108.982 96.9837 112.473 99.0555 115.911 101.223C116.046 101.064 116.178 100.904 116.311 100.745C117.111 101.135 117.801 101.761 118.65 102.032C118.556 101.653 118.173 101.533 117.897 101.341Z" fill="white"/>
<path fill-rule="evenodd" clip-rule="evenodd" d="M91.2939 97.3122C86.4658 94.3814 81.6674 91.3892 76.8304 88.4789C76.3348 88.729 75.8867 89.0672 75.409 89.3504C77.3616 90.6388 79.3913 91.7967 81.3721 93.0395C82.0591 93.4422 82.7179 93.9 83.4212 94.2697C83.531 94.103 83.6408 93.9346 83.7491 93.7679C85.1482 94.6504 85.3504 94.921 86.7407 95.8209C86.8446 95.6352 88.1765 96.0049 88.2804 95.8209C89.5356 96.5917 89.4285 96.5461 90.6867 97.3122C90.703 96.8324 91.604 97.5168 91.2939 97.3122Z" fill="white"/>
<path fill-rule="evenodd" clip-rule="evenodd" d="M89.4852 98.6741C84.6571 95.7432 79.8587 92.7511 75.0217 89.8407C74.5261 90.0908 74.078 90.4291 73.6003 90.7122C75.5529 92.0007 77.5826 93.1585 79.5634 94.4013C80.2504 94.8041 80.9092 95.2618 81.6125 95.6315C81.7223 95.4648 81.8321 95.2965 81.9404 95.1297C83.3395 96.0122 84.7713 96.8382 86.1616 97.738C86.2655 97.5524 86.3678 97.3667 86.4717 97.1827C87.7269 97.9535 88.9851 98.7212 90.2434 99.4874C90.2597 99.0076 89.7953 98.8786 89.4852 98.6741Z" fill="white"/>
<path fill-rule="evenodd" clip-rule="evenodd" d="M115.546 102.435C108.977 98.4048 102.395 94.3979 95.8341 90.3549C95.8282 90.9527 95.8312 91.5505 95.8237 92.1483C98.9337 94.0801 102.072 95.9616 105.179 97.9014C105.297 97.7315 105.416 97.5616 105.535 97.3932C108.336 99.0734 111.109 100.809 113.903 102.504C114.004 102.33 114.103 102.154 114.204 101.979C115.007 102.391 115.712 103.022 116.578 103.286C116.412 102.813 115.908 102.687 115.546 102.435Z" fill="white"/>
<path fill-rule="evenodd" clip-rule="evenodd" d="M78.1732 94.283C76.4224 93.2368 74.7102 92.1136 72.9356 91.1162C72.5098 91.4419 71.8747 91.574 71.6003 92.0585C74.2517 93.6695 76.8853 95.3119 79.5427 96.9102C79.651 96.734 79.7593 96.5594 79.8691 96.3848C81.9508 97.7062 84.0859 98.9317 86.1527 100.277C86.267 100.09 86.3812 99.9039 86.4955 99.7183C87.7314 100.505 88.9867 101.255 90.2345 102.018C90.2404 101.768 90.1381 101.592 89.9288 101.488C86.0162 99.0765 82.0873 96.6931 78.1732 94.283Z" fill="white"/>
<path fill-rule="evenodd" clip-rule="evenodd" d="M70.9088 92.3481C70.4192 92.6501 69.9266 92.9427 69.4414 93.2527C72.1122 94.9061 74.7799 96.5705 77.4848 98.161C77.5916 97.9958 77.6999 97.8322 77.8067 97.6685C80.5858 99.3739 83.3767 101.06 86.1394 102.792C86.2655 102.618 86.3901 102.443 86.5163 102.27C87.7552 103.028 88.9822 103.807 90.2345 104.539C90.3042 104.226 90.0298 104.103 89.8443 103.966C83.5354 100.087 77.2014 96.2543 70.9088 92.3481Z" fill="white"/>
<path fill-rule="evenodd" clip-rule="evenodd" d="M114.412 104.282C108.225 100.475 102.02 96.698 95.8297 92.8909C95.8297 93.4872 95.8312 94.0834 95.8238 94.6796C98.9352 96.6131 102.067 98.5087 105.191 100.422C105.302 100.258 105.413 100.094 105.524 99.9309C107.657 101.163 109.718 102.531 111.854 103.754C111.955 103.584 112.057 103.412 112.158 103.244C112.811 103.623 113.436 104.051 114.095 104.418C114.231 104.578 114.688 104.515 114.412 104.282Z" fill="white"/>
<path fill-rule="evenodd" clip-rule="evenodd" d="M70.2559 94.5074C69.7722 94.2101 69.3034 93.8844 68.7944 93.6375C68.3656 93.971 67.7707 94.1267 67.4457 94.5703C70.0823 96.2001 72.7174 97.8362 75.3822 99.4126C75.4668 99.2348 75.5514 99.0586 75.6374 98.8824C79.1391 101.016 82.6377 103.155 86.1289 105.307C86.2907 105.161 86.4153 104.706 86.6868 104.923C87.8857 105.619 89.0385 106.402 90.2508 107.069C90.2908 106.706 89.954 106.586 89.7329 106.427C83.2371 102.461 76.7502 98.4765 70.2559 94.5074Z" fill="white"/>
<path fill-rule="evenodd" clip-rule="evenodd" d="M89.7345 108.961C82.0636 104.279 74.409 99.5674 66.7351 94.8888C66.3093 95.2491 65.7069 95.3891 65.3611 95.8406C68.0126 97.4452 70.6388 99.1033 73.3051 100.681C73.3941 100.511 73.4831 100.341 73.5721 100.173C77.7934 102.684 81.9567 105.305 86.1616 107.847C86.2581 107.679 86.3545 107.512 86.451 107.344C87.767 108.018 88.96 108.939 90.282 109.604C90.2582 109.264 89.9689 109.112 89.7345 108.961Z" fill="white"/>
<path fill-rule="evenodd" clip-rule="evenodd" d="M111.194 104.838C106.07 101.706 100.954 98.5599 95.8252 95.434C95.8282 96.0365 95.8297 96.639 95.8341 97.2431C98.9692 99.1215 102.061 101.078 105.202 102.946C105.314 102.779 105.423 102.614 105.535 102.447C106.955 103.3 108.352 104.193 109.781 105.029C109.873 104.853 109.967 104.675 110.06 104.499C110.893 104.897 111.588 105.641 112.505 105.806C112.179 105.34 111.649 105.128 111.194 104.838Z" fill="white"/>
<path fill-rule="evenodd" clip-rule="evenodd" d="M75.3363 102.683C71.7664 100.522 68.2337 98.294 64.646 96.1655C64.4234 96.3071 64.1994 96.4487 63.9739 96.5871C63.9664 96.8955 63.959 97.2038 63.9546 97.5122C67.0526 99.411 70.1566 101.302 73.2472 103.213C73.3748 103.043 73.5024 102.872 73.6315 102.704C77.7993 105.277 81.9805 107.827 86.1602 110.379C86.264 110.209 86.3679 110.039 86.4717 109.871C87.7611 110.59 88.9748 111.455 90.282 112.136C90.2375 111.889 90.1114 111.712 89.9066 111.603C85.0459 108.638 80.1941 105.655 75.3363 102.683Z" fill="white"/>
<path d="M68.3804 111.615L76.348 107.913V96.8085L68.3804 100.51V111.615Z" fill="#CCCCCC"/>
<path fill-rule="evenodd" clip-rule="evenodd" d="M108.829 105.926C104.499 103.27 100.17 100.615 95.8312 97.9736C95.8282 98.5777 95.8282 99.1802 95.8356 99.7827C98.9737 101.664 102.078 103.609 105.213 105.495C105.317 105.319 105.421 105.144 105.523 104.969C106.226 105.416 106.947 105.833 107.651 106.281C107.778 106.113 107.906 105.943 108.033 105.777C108.717 106.211 109.406 106.637 110.103 107.044H110.479C109.973 106.601 109.398 106.263 108.829 105.926Z" fill="white"/>
<path fill-rule="evenodd" clip-rule="evenodd" d="M88.1112 113.034C80.053 108.129 72.0305 103.157 63.9619 98.2726C63.956 98.8688 63.9589 99.4666 63.9619 100.063C67.103 101.957 70.2233 103.889 73.354 105.805C73.4519 105.618 73.5483 105.429 73.6463 105.243C77.82 107.82 82.0012 110.384 86.1957 112.924C86.3233 112.771 86.3916 112.54 86.5741 112.45C87.3219 112.812 87.9524 113.449 88.7522 113.676L88.8397 113.529C88.6172 113.333 88.3634 113.182 88.1112 113.034Z" fill="white"/>
<path fill-rule="evenodd" clip-rule="evenodd" d="M86.0267 114.297C78.6718 109.796 71.3199 105.29 63.9665 100.788C63.9576 101.383 63.9591 101.979 63.9576 102.574C67.069 104.51 70.219 106.378 73.317 108.336C73.4327 108.155 73.547 107.974 73.6597 107.793C77.1109 109.939 80.6021 112.011 84.04 114.179C84.175 114.02 84.307 113.86 84.4406 113.701C85.2403 114.091 85.9302 114.717 86.7789 114.987C86.6855 114.608 86.3027 114.489 86.0267 114.297Z" fill="white"/>
<path fill-rule="evenodd" clip-rule="evenodd" d="M83.6748 115.391C77.1063 111.36 70.5245 107.353 63.9634 103.31C63.9575 103.908 63.9604 104.506 63.953 105.104C67.0629 107.036 70.201 108.917 73.308 110.857C73.4267 110.687 73.5454 110.517 73.6641 110.349C76.4654 112.029 79.2385 113.764 82.0323 115.46C82.1332 115.285 82.2326 115.109 82.3335 114.935C83.1362 115.347 83.841 115.978 84.7075 116.242C84.5413 115.768 84.0369 115.642 83.6748 115.391Z" fill="white"/>
<path fill-rule="evenodd" clip-rule="evenodd" d="M82.5413 117.238C76.3542 113.431 70.1492 109.654 63.959 105.846C63.959 106.443 63.9605 107.039 63.9531 107.635C67.0645 109.569 70.1966 111.464 73.3199 113.377C73.4312 113.214 73.5425 113.05 73.6538 112.886C75.7859 114.118 77.8468 115.487 79.9834 116.709C80.0843 116.539 80.1866 116.368 80.2875 116.2C80.9404 116.579 81.565 117.007 82.2238 117.373C82.3603 117.534 82.8173 117.471 82.5413 117.238Z" fill="white"/>
<path fill-rule="evenodd" clip-rule="evenodd" d="M79.323 117.794C74.1997 114.662 69.0838 111.515 63.9545 108.39C63.9574 108.992 63.9589 109.595 63.9634 110.199C67.0985 112.077 70.1906 114.034 73.3317 115.901C73.443 115.735 73.5528 115.569 73.664 115.403C75.084 116.255 76.4817 117.149 77.9105 117.984C78.0025 117.808 78.096 117.63 78.1894 117.454C79.0218 117.852 79.7177 118.596 80.6346 118.761C80.3082 118.296 79.7785 118.083 79.323 117.794Z" fill="white"/>
<path fill-rule="evenodd" clip-rule="evenodd" d="M76.958 118.881C72.6285 116.226 68.2989 113.57 63.9605 110.929C63.9575 111.533 63.9575 112.136 63.9649 112.738C67.103 114.62 70.207 116.564 73.3421 118.45C73.446 118.274 73.5499 118.1 73.6522 117.925C74.3555 118.372 75.0766 118.789 75.7799 119.237C75.9075 119.069 76.0351 118.899 76.1627 118.732C76.8467 119.166 77.5352 119.593 78.2325 120H78.6079C78.102 119.556 77.5277 119.218 76.958 118.881Z" fill="white"/>
</svg>
